<svg width="169" height="41" viewBox="0 0 169 41" fill="none" xmlns="http://www.w3.org/2000/svg">
<path d="M8.52 32.48C7.02667 32.48 5.65333 32.08 4.4 31.28C3.14667 30.5067 2.14667 29.3733 1.4 27.88C0.653333 26.36 0.28 24.5467 0.28 22.44C0.28 20.3867 0.6 18.3067 1.24 16.2C1.88 14.0933 2.76 12.0933 3.88 10.2C5 8.28 6.28 6.57333 7.72 5.08C9.16 3.58666 10.68 2.41333 12.28 1.56C13.9067 0.679998 15.5333 0.239998 17.16 0.239998C18.3333 0.239998 19.2667 0.466665 19.96 0.919999C20.6533 1.34667 21.1467 1.92 21.44 2.64C21.76 3.36 21.92 4.13333 21.92 4.96C21.92 5.89333 21.7467 6.82667 21.4 7.76C21.08 8.69333 20.6267 9.46667 20.04 10.08C19.48 10.6933 18.8533 11 18.16 11C17.84 11 17.5467 10.9067 17.28 10.72C17.0133 10.5333 16.7467 10.1867 16.48 9.68C16.88 9.41333 17.32 8.94667 17.8 8.28C18.3067 7.61333 18.7467 6.88 19.12 6.08C19.4933 5.25333 19.68 4.52 19.68 3.88C19.68 3.34667 19.5067 2.90667 19.16 2.56C18.84 2.18667 18.2933 2 17.52 2C16.32 2 15.08 2.45333 13.8 3.36C12.5467 4.24 11.3467 5.42666 10.2 6.92C9.05333 8.38667 8.01333 10.04 7.08 11.88C6.17333 13.6933 5.45333 15.56 4.92 17.48C4.38667 19.3733 4.12 21.1733 4.12 22.88C4.12 25.3067 4.64 27.2 5.68 28.56C6.74667 29.8933 8.01333 30.56 9.48 30.56C10.5733 30.56 11.5733 30.2133 12.48 29.52C13.4133 28.8267 14.2267 27.92 14.92 26.8C15.64 25.6533 16.2133 24.4133 16.64 23.08C17.0667 21.7467 17.3333 20.44 17.44 19.16C16.7733 19.0267 16.08 18.9333 15.36 18.88C14.6667 18.8 13.9333 18.76 13.16 18.76C12.7333 18.76 12.3067 18.7733 11.88 18.8C11.4533 18.8 11 18.8133 10.52 18.84C10.76 17.9067 11.1333 17.2267 11.64 16.8C12.1733 16.3467 12.8667 16.12 13.72 16.12C14.52 16.12 15.32 16.2533 16.12 16.52C16.9467 16.76 17.7733 17.0267 18.6 17.32C19.4533 17.6133 20.28 17.8533 21.08 18.04L20.68 19.28C20.2 20.7467 19.8 21.9733 19.48 22.96C19.1867 23.92 18.96 24.7467 18.8 25.44C18.64 26.1067 18.5333 26.72 18.48 27.28C18.4267 27.8133 18.4 28.3733 18.4 28.96C18.4 29.4933 18.4133 30.04 18.44 30.6C18.4667 31.1867 18.4933 31.8933 18.52 32.72C17.72 32.6133 17.12 32.3733 16.72 32C16.3467 31.6533 16.0933 31.24 15.96 30.76C15.8533 30.28 15.8 29.8133 15.8 29.36C15.8 29.2267 15.8 29.0933 15.8 28.96C15.8 28.8267 15.8133 28.6933 15.84 28.56C14.9067 29.7067 13.8267 30.64 12.6 31.36C11.4 32.1067 10.04 32.48 8.52 32.48ZM29.3688 30.04C28.3821 30.04 27.5821 29.7733 26.9688 29.24C26.3554 28.7333 26.0488 28.04 26.0488 27.16C26.0488 26.4133 26.2354 25.6133 26.6088 24.76C26.9821 23.9067 27.3554 23.0667 27.7288 22.24C28.1288 21.4133 28.3288 20.68 28.3288 20.04C28.3288 19.4267 28.1288 18.92 27.7288 18.52C27.3288 18.0933 26.8621 17.7467 26.3288 17.48C25.7421 18.9467 25.0754 20.3733 24.3288 21.76C23.6088 23.12 23.0221 24.1867 22.5688 24.96L21.9688 23.8C22.3421 23.1067 22.8354 22.12 23.4488 20.84C24.0621 19.56 24.6488 18.1333 25.2088 16.56C24.9421 16.2933 24.8088 15.9333 24.8088 15.48C24.8088 14.7867 25.0221 14.1333 25.4488 13.52C25.8754 12.9067 26.2888 12.6 26.6888 12.6C27.0088 12.6 27.2354 12.7867 27.3688 13.16C27.5288 13.5067 27.6088 13.7467 27.6088 13.88C27.6088 14.0133 27.5421 14.2533 27.4088 14.6C27.3021 14.9467 27.2221 15.2 27.1688 15.36C27.1954 15.6533 27.4221 15.9467 27.8487 16.24C28.3021 16.5067 28.8088 16.8267 29.3688 17.2C29.9288 17.5733 30.4221 18.04 30.8488 18.6C31.2754 19.16 31.4888 19.8667 31.4888 20.72C31.4888 21.4933 31.3154 22.28 30.9688 23.08C30.6221 23.88 30.2754 24.6267 29.9288 25.32C29.5821 26.0133 29.4088 26.6133 29.4088 27.12C29.4088 27.4933 29.5021 27.7467 29.6888 27.88C29.9021 27.9867 30.1421 28.04 30.4088 28.04C31.0488 28.04 31.7154 27.8533 32.4088 27.48C33.1021 27.08 33.7821 26.5733 34.4488 25.96C35.1154 25.3467 35.7021 24.7067 36.2088 24.04C36.7154 23.3467 37.1021 22.72 37.3688 22.16L38.3288 22.88C37.8221 24.0267 37.0888 25.16 36.1288 26.28C35.1688 27.3733 34.1021 28.28 32.9288 29C31.7554 29.6933 30.5688 30.04 29.3688 30.04ZM38.74 30.88C37.86 30.88 37.1 30.5867 36.46 30C35.7933 29.4133 35.46 28.5333 35.46 27.36C35.46 26.4267 35.6733 25.4133 36.1 24.32C36.5267 23.2267 37.1133 22.1467 37.86 21.08C38.6067 20.0133 39.46 19.0533 40.42 18.2C41.38 17.32 42.4067 16.6133 43.5 16.08C44.5933 15.5467 45.6867 15.28 46.78 15.28C47.9267 15.28 48.9 15.5733 49.7 16.16C50.5 16.7467 50.9 17.52 50.9 18.48C50.9 19.2 50.6467 19.72 50.14 20.04C49.6333 20.36 49.0333 20.4533 48.34 20.32C48.3933 20.08 48.4333 19.84 48.46 19.6C48.5133 19.36 48.54 19.1067 48.54 18.84C48.54 18.3067 48.4333 17.8267 48.22 17.4C48.0067 16.9733 47.5533 16.76 46.86 16.76C46.1133 16.76 45.3533 17.0133 44.58 17.52C43.8067 18.0267 43.06 18.6933 42.34 19.52C41.6467 20.32 41.02 21.2133 40.46 22.2C39.9 23.16 39.46 24.1067 39.14 25.04C38.82 25.9733 38.66 26.8133 38.66 27.56C38.66 28.4133 38.9667 28.84 39.58 28.84C40.1933 28.84 40.8733 28.5467 41.62 27.96C42.3667 27.3467 43.1133 26.5867 43.86 25.68C44.6333 24.7733 45.3667 23.8533 46.06 22.92C46.7533 21.96 47.3533 21.1467 47.86 20.48C47.94 20.3467 48.0467 20.28 48.18 20.28C48.2867 20.3067 48.4867 20.3733 48.78 20.48C49.1 20.56 49.3933 20.6933 49.66 20.88C49.9267 21.0667 50.06 21.3067 50.06 21.6C50.06 21.8667 49.94 22.2133 49.7 22.64C49.4867 23.04 49.22 23.4933 48.9 24C48.6067 24.48 48.34 24.9733 48.1 25.48C47.8867 25.96 47.78 26.4267 47.78 26.88C47.78 27.2267 47.8733 27.56 48.06 27.88C48.2467 28.1733 48.5533 28.32 48.98 28.32C49.62 28.32 50.5133 27.8533 51.66 26.92C52.8333 25.96 54.02 24.3467 55.22 22.08L55.98 22.84C55.34 24.28 54.5667 25.56 53.66 26.68C52.78 27.7733 51.8467 28.6267 50.86 29.24C49.8733 29.88 48.8733 30.2 47.86 30.2C46.7667 30.2 45.9533 29.8533 45.42 29.16C44.8867 28.4667 44.5933 27.72 44.54 26.92C44.54 26.8667 44.54 26.8267 44.54 26.8C44.54 26.7733 44.54 26.7467 44.54 26.72C43.4733 28 42.4867 29.0133 41.58 29.76C40.7 30.5067 39.7533 30.88 38.74 30.88ZM57.0334 30.2C56.5268 30.2 56.0068 30.0667 55.4734 29.8C54.9668 29.56 54.5401 29.1733 54.1934 28.64C53.8201 28.1067 53.6334 27.4267 53.6334 26.6C53.6334 25.72 53.8468 24.7333 54.2734 23.64C54.7001 22.5467 55.2734 21.4533 55.9934 20.36C56.7401 19.2667 57.5934 18.2667 58.5534 17.36C59.5401 16.4533 60.5801 15.72 61.6734 15.16C62.7668 14.6 63.8734 14.32 64.9934 14.32C65.6068 14.32 66.0868 14.4267 66.4334 14.64C66.7801 14.8267 66.9534 15.1467 66.9534 15.6C66.9534 15.7333 66.9268 15.8933 66.8734 16.08C66.8201 16.24 66.6868 16.3867 66.4734 16.52C66.3668 16.36 66.1801 16.2533 65.9134 16.2C65.6468 16.12 65.3668 16.08 65.0734 16.08C64.1934 16.08 63.3534 16.3333 62.5534 16.84C61.7534 17.32 61.0201 17.9467 60.3534 18.72C59.6868 19.4933 59.1001 20.3333 58.5934 21.24C58.1134 22.1467 57.7401 23.0267 57.4734 23.88C57.2068 24.7067 57.0734 25.4267 57.0734 26.04C57.0734 26.5467 57.1801 26.96 57.3934 27.28C57.6068 27.5733 57.9268 27.72 58.3534 27.72C59.0734 27.72 59.9268 27.3067 60.9134 26.48C61.9268 25.6267 62.9534 24.4133 63.9934 22.84C65.0601 21.24 66.0201 19.3333 66.8734 17.12C67.4601 15.6 68.0734 14.0533 68.7134 12.48C69.3534 10.88 69.9934 9.34667 70.6334 7.88C71.2734 6.41333 71.9001 5.10667 72.5134 3.96C73.1534 2.81333 73.7534 1.90667 74.3134 1.24C74.9001 0.546666 75.4334 0.199999 75.9134 0.199999C76.2068 0.199999 76.4601 0.319999 76.6734 0.559999C76.9134 0.773333 77.0334 1.05333 77.0334 1.4C77.0334 1.85333 76.8068 2.58666 76.3534 3.6C75.9268 4.58666 75.3668 5.77333 74.6734 7.16C74.0068 8.54667 73.2734 10.0533 72.4734 11.68C71.7001 13.28 70.9668 14.9333 70.2734 16.64C69.6068 18.32 69.0468 19.9867 68.5934 21.64C68.1668 23.2667 67.9534 24.8 67.9534 26.24C67.9534 26.88 68.0068 27.32 68.1134 27.56C68.2468 27.7733 68.4601 27.88 68.7534 27.88C69.3401 27.88 69.9934 27.6533 70.7134 27.2C71.4334 26.7467 72.1668 26.08 72.9134 25.2C73.6601 24.2933 74.3401 23.2133 74.9534 21.96L75.7134 22.6C75.1268 24.0667 74.3801 25.36 73.4734 26.48C72.5668 27.6 71.5934 28.4667 70.5534 29.08C69.5134 29.72 68.4868 30.04 67.4734 30.04C66.3801 30.04 65.6201 29.6933 65.1934 29C64.7668 28.3067 64.5534 27.4933 64.5534 26.56C64.5534 26.1333 64.5801 25.7067 64.6334 25.28C64.7134 24.8267 64.7934 24.3867 64.8734 23.96C64.0468 25.16 63.1668 26.24 62.2334 27.2C61.3268 28.1333 60.4334 28.8667 59.5534 29.4C58.6734 29.9333 57.8334 30.2 57.0334 30.2ZM77.1219 30.2C75.9485 30.2 75.0685 29.8533 74.4819 29.16C73.8952 28.4667 73.6019 27.6267 73.6019 26.64C73.6019 26.0267 73.7085 25.2533 73.9219 24.32C74.1352 23.3867 74.4285 22.4133 74.8019 21.4C75.2019 20.36 75.6552 19.3867 76.1619 18.48C76.6685 17.5733 77.2152 16.84 77.8019 16.28C78.3885 15.6933 78.9752 15.4 79.5619 15.4C79.8819 15.4 80.1619 15.5067 80.4019 15.72C80.6419 15.9067 80.7619 16.1867 80.7619 16.56C80.7619 16.9067 80.5485 17.4267 80.1219 18.12C79.7219 18.8133 79.2419 19.6133 78.6819 20.52C78.1485 21.4267 77.6685 22.3733 77.2419 23.36C76.8419 24.32 76.6419 25.24 76.6419 26.12C76.6419 26.9733 76.7885 27.5467 77.0819 27.84C77.4019 28.1067 77.8552 28.24 78.4419 28.24C79.3485 28.24 80.3352 27.7867 81.4019 26.88C82.4685 25.9733 83.5752 24.3867 84.7219 22.12L85.3219 22.76C84.3885 25.1067 83.2019 26.9333 81.7619 28.24C80.3219 29.5467 78.7752 30.2 77.1219 30.2ZM81.8419 12.16C81.3352 12.16 80.8685 12.04 80.4419 11.8C80.0419 11.5333 79.8419 11.1333 79.8419 10.6C79.8419 9.96 80.1885 9.41333 80.8819 8.96C81.5752 8.50667 82.2952 8.28 83.0419 8.28C83.5219 8.28 83.9219 8.38667 84.2419 8.6C84.5885 8.81333 84.7619 9.2 84.7619 9.76C84.7619 10.32 84.4552 10.8667 83.8419 11.4C83.2285 11.9067 82.5619 12.16 81.8419 12.16ZM88.3275 30.76C86.6208 30.76 85.3008 30.2933 84.3675 29.36C83.4608 28.4533 83.0075 27.3067 83.0075 25.92C83.0075 24.7467 83.3008 23.5067 83.8875 22.2C84.5008 20.8667 85.3142 19.6267 86.3275 18.48C87.3408 17.3067 88.4608 16.36 89.6875 15.64C90.9142 14.92 92.1408 14.56 93.3675 14.56C94.0608 14.56 94.7142 14.7467 95.3275 15.12C95.9675 15.4667 96.2875 16.1733 96.2875 17.24C96.2875 18.2533 95.9942 19.2 95.4075 20.08C94.8208 20.96 94.0342 21.7467 93.0475 22.44C92.0608 23.1333 90.9675 23.7067 89.7675 24.16C88.5942 24.5867 87.4075 24.8667 86.2075 25C86.1808 25.1067 86.1542 25.2267 86.1275 25.36C86.1275 25.4667 86.1275 25.6533 86.1275 25.92C86.1275 26.0533 86.1408 26.2933 86.1675 26.64C86.2208 26.96 86.3408 27.3067 86.5275 27.68C86.7142 28.0533 87.0208 28.3733 87.4475 28.64C87.8742 28.9067 88.4608 29.04 89.2075 29.04C90.3275 29.04 91.4475 28.7333 92.5675 28.12C93.7142 27.48 94.7808 26.64 95.7675 25.6C96.7808 24.56 97.6208 23.4 98.2875 22.12L99.0875 22.76C98.3675 24.36 97.4342 25.76 96.2875 26.96C95.1675 28.16 93.9142 29.0933 92.5275 29.76C91.1675 30.4267 89.7675 30.76 88.3275 30.76ZM86.6475 23.52C87.3408 23.44 88.1142 23.2 88.9675 22.8C89.8208 22.4 90.6342 21.8933 91.4075 21.28C92.2075 20.6667 92.8608 20 93.3675 19.28C93.8742 18.5333 94.1275 17.7867 94.1275 17.04C94.1275 16.7467 94.0742 16.5467 93.9675 16.44C93.8608 16.3333 93.6875 16.28 93.4475 16.28C92.8342 16.28 92.1942 16.5067 91.5275 16.96C90.8608 17.3867 90.2075 17.96 89.5675 18.68C88.9275 19.3733 88.3542 20.1467 87.8475 21C87.3408 21.8533 86.9408 22.6933 86.6475 23.52ZM110.8 29.8C109.76 29.8 108.96 29.5333 108.4 29C107.867 28.4933 107.6 27.84 107.6 27.04C107.6 26.5067 107.694 25.9467 107.88 25.36C108.067 24.7467 108.254 24.1333 108.44 23.52C108.627 22.9067 108.72 22.32 108.72 21.76C108.72 21.1733 108.574 20.7733 108.28 20.56C108.014 20.32 107.694 20.2 107.32 20.2C106.52 20.2 105.694 20.5333 104.84 21.2C104.014 21.84 103.2 22.6533 102.4 23.64C101.627 24.6267 100.894 25.6533 100.2 26.72C99.507 27.7867 98.907 28.7467 98.4003 29.6C97.8936 29.6 97.4136 29.5067 96.9603 29.32C96.507 29.16 96.1203 28.8667 95.8003 28.44C95.827 28.3067 95.987 27.9067 96.2803 27.24C96.547 26.5467 96.8536 25.7333 97.2003 24.8C97.547 23.84 97.8536 22.84 98.1203 21.8C98.387 20.76 98.5203 19.8133 98.5203 18.96C98.707 18.7467 98.987 18.5333 99.3603 18.32C99.7603 18.1067 100.174 18 100.6 18C101.534 18 102 18.4 102 19.2C102 19.52 101.934 20 101.8 20.64C101.694 21.2533 101.534 21.96 101.32 22.76C102.014 21.8267 102.774 20.9467 103.6 20.12C104.427 19.2933 105.28 18.6267 106.16 18.12C107.067 17.5867 107.974 17.32 108.88 17.32C110.027 17.32 110.867 17.7067 111.4 18.48C111.96 19.2533 112.24 20.1067 112.24 21.04C112.24 21.84 112.107 22.5867 111.84 23.28C111.574 23.9733 111.307 24.6267 111.04 25.24C110.8 25.8533 110.68 26.4533 110.68 27.04C110.68 27.4667 110.774 27.7733 110.96 27.96C111.174 28.12 111.4 28.2 111.64 28.2C112.28 28.2 112.947 27.8933 113.64 27.28C114.334 26.6667 114.987 25.8933 115.6 24.96C116.24 24 116.8 23.04 117.28 22.08L117.96 22.64C117.4 23.9467 116.76 25.1467 116.04 26.24C115.347 27.3067 114.56 28.1733 113.68 28.84C112.827 29.48 111.867 29.8 110.8 29.8ZM119.867 30.84C118.693 30.84 117.747 30.4933 117.027 29.8C116.307 29.1067 115.947 28.0533 115.947 26.64C115.947 25.5467 116.147 24.1867 116.547 22.56C116.973 20.9333 117.507 19.2533 118.147 17.52C117.96 17.4667 117.733 17.4267 117.467 17.4C117.227 17.3467 116.987 17.2667 116.747 17.16V15.92C117.173 15.9733 117.52 16.0133 117.787 16.04C118.08 16.0667 118.373 16.0933 118.667 16.12C119.227 14.7067 119.827 13.3467 120.467 12.04C121.133 10.7067 121.787 9.52 122.427 8.48C123.093 7.44 123.72 6.62667 124.307 6.04C124.893 5.42667 125.413 5.12 125.867 5.12C126.133 5.12 126.387 5.22667 126.627 5.44C126.867 5.62667 126.987 5.90667 126.987 6.28C126.987 6.81333 126.707 7.57333 126.147 8.56C125.613 9.54667 124.947 10.7067 124.147 12.04C123.347 13.3467 122.573 14.7467 121.827 16.24C122.04 16.24 122.253 16.24 122.467 16.24C122.68 16.24 122.88 16.24 123.067 16.24C124.24 16.24 125.293 16.2267 126.227 16.2C127.187 16.1467 128.16 16.0667 129.147 15.96V17.28C127.68 17.4133 126.333 17.52 125.107 17.6C123.88 17.68 122.707 17.7333 121.587 17.76C121.507 17.76 121.427 17.76 121.347 17.76C121.267 17.76 121.187 17.76 121.107 17.76C120.547 19.0667 120.053 20.4133 119.627 21.8C119.227 23.16 119.027 24.4933 119.027 25.8C119.027 26.8933 119.2 27.6667 119.547 28.12C119.893 28.5733 120.44 28.8 121.187 28.8C122.52 28.8 123.88 28.2 125.267 27C126.68 25.7733 127.907 24.12 128.947 22.04L129.507 22.44C128.813 24.0133 127.947 25.44 126.907 26.72C125.893 28 124.787 29 123.587 29.72C122.387 30.4667 121.147 30.84 119.867 30.84ZM130.63 29.4C129.99 29.4 129.537 29.24 129.27 28.92C129.003 28.5733 128.87 28.2267 128.87 27.88C128.87 27.5867 129.003 27.28 129.27 26.96C129.537 26.6133 129.87 26.3333 130.27 26.12C130.67 25.88 131.043 25.76 131.39 25.76C131.683 25.76 131.977 25.8533 132.27 26.04C132.563 26.2 132.71 26.52 132.71 27C132.71 27.2133 132.63 27.52 132.47 27.92C132.31 28.2933 132.07 28.64 131.75 28.96C131.457 29.2533 131.083 29.4 130.63 29.4ZM139.438 40.2C138.771 40.2 138.144 40 137.558 39.6C136.997 39.2 136.717 38.5467 136.717 37.64C136.717 36.7867 136.957 36.0133 137.438 35.32C137.944 34.6533 138.598 34.0267 139.398 33.44C140.224 32.88 141.104 32.36 142.038 31.88C142.971 31.4 143.878 30.9467 144.758 30.52C145.051 29.8 145.331 29.0267 145.598 28.2C145.864 27.3733 146.118 26.48 146.358 25.52C145.424 26.6933 144.438 27.6667 143.398 28.44C142.384 29.2133 141.344 29.6 140.278 29.6C139.211 29.6 138.358 29.2267 137.718 28.48C137.104 27.7333 136.797 26.7467 136.797 25.52C136.797 24.1067 137.144 22.7867 137.838 21.56C138.558 20.3067 139.478 19.2 140.598 18.24C141.718 17.2533 142.918 16.4933 144.198 15.96C145.478 15.4 146.704 15.12 147.878 15.12C148.731 15.12 149.371 15.28 149.798 15.6C150.224 15.8933 150.438 16.24 150.438 16.64C150.438 16.96 150.344 17.2133 150.158 17.4C149.971 17.5867 149.851 17.6933 149.798 17.72C149.531 17.4267 149.251 17.24 148.958 17.16C148.691 17.0533 148.371 17 147.997 17C146.958 17 145.958 17.2933 144.998 17.88C144.038 18.4667 143.184 19.2267 142.438 20.16C141.718 21.0667 141.144 22.0133 140.718 23C140.291 23.9867 140.077 24.88 140.077 25.68C140.077 26.2133 140.198 26.6267 140.438 26.92C140.678 27.1867 140.971 27.32 141.318 27.32C142.064 27.32 142.971 26.84 144.038 25.88C145.104 24.8933 146.131 23.7067 147.118 22.32C147.171 22.1067 147.211 21.92 147.238 21.76C147.291 21.5733 147.331 21.4 147.358 21.24C147.624 20.1733 147.944 19.3867 148.318 18.88C148.691 18.3733 149.211 18.12 149.878 18.12C150.011 18.12 150.171 18.1333 150.358 18.16C150.571 18.1867 150.798 18.2267 151.038 18.28C151.038 18.76 150.904 19.5467 150.638 20.64C150.371 21.7333 150.011 23.0133 149.558 24.48C149.104 25.92 148.598 27.4 148.038 28.92C148.864 28.5733 149.704 28.0933 150.558 27.48C151.411 26.84 152.198 26.08 152.918 25.2C153.638 24.2933 154.184 23.2933 154.558 22.2L155.278 22.92C154.851 24.1467 154.184 25.2667 153.278 26.28C152.398 27.2933 151.438 28.1733 150.398 28.92C149.358 29.64 148.398 30.2 147.518 30.6C146.798 32.36 146.011 33.96 145.158 35.4C144.331 36.8667 143.438 38.0267 142.478 38.88C141.544 39.76 140.531 40.2 139.438 40.2ZM139.278 38.36C139.758 38.36 140.411 37.9067 141.238 37C142.091 36.0933 143.011 34.56 143.998 32.4C143.011 32.88 142.104 33.3733 141.278 33.88C140.451 34.3867 139.784 34.92 139.278 35.48C138.771 36.04 138.518 36.6267 138.518 37.24C138.518 37.5867 138.584 37.8533 138.718 38.04C138.878 38.2533 139.064 38.36 139.278 38.36ZM158.21 30.76C156.504 30.76 155.184 30.2933 154.25 29.36C153.344 28.4533 152.89 27.3067 152.89 25.92C152.89 24.7467 153.184 23.5067 153.77 22.2C154.384 20.8667 155.197 19.6267 156.21 18.48C157.224 17.3067 158.344 16.36 159.57 15.64C160.797 14.92 162.024 14.56 163.25 14.56C163.944 14.56 164.597 14.7467 165.21 15.12C165.85 15.4667 166.17 16.1733 166.17 17.24C166.17 18.2533 165.877 19.2 165.29 20.08C164.704 20.96 163.917 21.7467 162.93 22.44C161.944 23.1333 160.85 23.7067 159.65 24.16C158.477 24.5867 157.29 24.8667 156.09 25C156.064 25.1067 156.037 25.2267 156.01 25.36C156.01 25.4667 156.01 25.6533 156.01 25.92C156.01 26.0533 156.024 26.2933 156.05 26.64C156.104 26.96 156.224 27.3067 156.41 27.68C156.597 28.0533 156.904 28.3733 157.33 28.64C157.757 28.9067 158.344 29.04 159.09 29.04C160.21 29.04 161.33 28.7333 162.45 28.12C163.597 27.48 164.664 26.64 165.65 25.6C166.664 24.56 167.504 23.4 168.17 22.12L168.97 22.76C168.25 24.36 167.317 25.76 166.17 26.96C165.05 28.16 163.797 29.0933 162.41 29.76C161.05 30.4267 159.65 30.76 158.21 30.76ZM156.53 23.52C157.224 23.44 157.997 23.2 158.85 22.8C159.704 22.4 160.517 21.8933 161.29 21.28C162.09 20.6667 162.744 20 163.25 19.28C163.757 18.5333 164.01 17.7867 164.01 17.04C164.01 16.7467 163.957 16.5467 163.85 16.44C163.744 16.3333 163.57 16.28 163.33 16.28C162.717 16.28 162.077 16.5067 161.41 16.96C160.744 17.3867 160.09 17.96 159.45 18.68C158.81 19.3733 158.237 20.1467 157.73 21C157.224 21.8533 156.824 22.6933 156.53 23.52Z" fill="black"/>
</svg>
